<mxfile host="app.diagrams.net" modified="2023-12-27T19:24:20.016Z" agent="Mozilla/5.0 (Windows NT 10.0; Win64; x64) AppleWebKit/537.36 (KHTML, like Gecko) Chrome/120.0.0.0 Safari/537.36 Edg/120.0.0.0" etag="7Mn35sntHUpOyNwtDsOB" version="22.1.15" type="github">
  <diagram id="C5RBs43oDa-KdzZeNtuy" name="Page-1">
    <mxGraphModel dx="1002" dy="1786" grid="1" gridSize="10" guides="1" tooltips="1" connect="1" arrows="1" fold="1" page="1" pageScale="1" pageWidth="827" pageHeight="1169" math="0" shadow="0">
      <root>
        <mxCell id="WIyWlLk6GJQsqaUBKTNV-0" />
        <mxCell id="WIyWlLk6GJQsqaUBKTNV-1" parent="WIyWlLk6GJQsqaUBKTNV-0" />
        <mxCell id="88gfg2YuxqC0_WyTA1wB-62" style="edgeStyle=orthogonalEdgeStyle;rounded=0;orthogonalLoop=1;jettySize=auto;html=1;exitX=0.5;exitY=1;exitDx=0;exitDy=0;entryX=0.5;entryY=0;entryDx=0;entryDy=0;" edge="1" parent="WIyWlLk6GJQsqaUBKTNV-1" source="88gfg2YuxqC0_WyTA1wB-1" target="88gfg2YuxqC0_WyTA1wB-61">
          <mxGeometry relative="1" as="geometry">
            <Array as="points">
              <mxPoint x="480" y="130" />
              <mxPoint x="480" y="260" />
              <mxPoint x="485" y="260" />
            </Array>
          </mxGeometry>
        </mxCell>
        <mxCell id="88gfg2YuxqC0_WyTA1wB-63" style="edgeStyle=orthogonalEdgeStyle;rounded=0;orthogonalLoop=1;jettySize=auto;html=1;exitX=0.5;exitY=1;exitDx=0;exitDy=0;entryX=0.5;entryY=0;entryDx=0;entryDy=0;" edge="1" parent="WIyWlLk6GJQsqaUBKTNV-1" source="88gfg2YuxqC0_WyTA1wB-1" target="88gfg2YuxqC0_WyTA1wB-43">
          <mxGeometry relative="1" as="geometry">
            <Array as="points">
              <mxPoint x="480" y="130" />
              <mxPoint x="480" y="260" />
              <mxPoint x="60" y="260" />
              <mxPoint x="60" y="780" />
              <mxPoint x="485" y="780" />
            </Array>
          </mxGeometry>
        </mxCell>
        <mxCell id="88gfg2YuxqC0_WyTA1wB-1" value="App: customtkinter" style="swimlane;fontStyle=0;childLayout=stackLayout;horizontal=1;startSize=30;horizontalStack=0;resizeParent=1;resizeParentMax=0;resizeLast=0;collapsible=1;marginBottom=0;whiteSpace=wrap;html=1;" vertex="1" parent="WIyWlLk6GJQsqaUBKTNV-1">
          <mxGeometry x="415" y="70" width="140" height="60" as="geometry" />
        </mxCell>
        <mxCell id="88gfg2YuxqC0_WyTA1wB-5" value="Personal Assistant" style="swimlane;fontStyle=0;childLayout=stackLayout;horizontal=1;startSize=30;horizontalStack=0;resizeParent=1;resizeParentMax=0;resizeLast=0;collapsible=1;marginBottom=0;whiteSpace=wrap;html=1;" vertex="1" parent="WIyWlLk6GJQsqaUBKTNV-1">
          <mxGeometry x="150" y="840" width="140" height="90" as="geometry" />
        </mxCell>
        <mxCell id="88gfg2YuxqC0_WyTA1wB-6" value="contacts: list" style="text;strokeColor=none;fillColor=none;align=left;verticalAlign=middle;spacingLeft=4;spacingRight=4;overflow=hidden;points=[[0,0.5],[1,0.5]];portConstraint=eastwest;rotatable=0;whiteSpace=wrap;html=1;" vertex="1" parent="88gfg2YuxqC0_WyTA1wB-5">
          <mxGeometry y="30" width="140" height="30" as="geometry" />
        </mxCell>
        <mxCell id="88gfg2YuxqC0_WyTA1wB-49" value="file_path: Path()" style="text;strokeColor=none;fillColor=none;align=left;verticalAlign=middle;spacingLeft=4;spacingRight=4;overflow=hidden;points=[[0,0.5],[1,0.5]];portConstraint=eastwest;rotatable=0;whiteSpace=wrap;html=1;" vertex="1" parent="88gfg2YuxqC0_WyTA1wB-5">
          <mxGeometry y="60" width="140" height="30" as="geometry" />
        </mxCell>
        <mxCell id="88gfg2YuxqC0_WyTA1wB-13" value="Record" style="swimlane;fontStyle=0;childLayout=stackLayout;horizontal=1;startSize=30;horizontalStack=0;resizeParent=1;resizeParentMax=0;resizeLast=0;collapsible=1;marginBottom=0;whiteSpace=wrap;html=1;" vertex="1" parent="WIyWlLk6GJQsqaUBKTNV-1">
          <mxGeometry x="310" y="910" width="140" height="210" as="geometry" />
        </mxCell>
        <mxCell id="88gfg2YuxqC0_WyTA1wB-14" value="id: int" style="text;strokeColor=none;fillColor=none;align=left;verticalAlign=middle;spacingLeft=4;spacingRight=4;overflow=hidden;points=[[0,0.5],[1,0.5]];portConstraint=eastwest;rotatable=0;whiteSpace=wrap;html=1;" vertex="1" parent="88gfg2YuxqC0_WyTA1wB-13">
          <mxGeometry y="30" width="140" height="30" as="geometry" />
        </mxCell>
        <mxCell id="88gfg2YuxqC0_WyTA1wB-15" value="name: str" style="text;strokeColor=none;fillColor=none;align=left;verticalAlign=middle;spacingLeft=4;spacingRight=4;overflow=hidden;points=[[0,0.5],[1,0.5]];portConstraint=eastwest;rotatable=0;whiteSpace=wrap;html=1;" vertex="1" parent="88gfg2YuxqC0_WyTA1wB-13">
          <mxGeometry y="60" width="140" height="30" as="geometry" />
        </mxCell>
        <mxCell id="88gfg2YuxqC0_WyTA1wB-16" value="phones: list" style="text;strokeColor=none;fillColor=none;align=left;verticalAlign=middle;spacingLeft=4;spacingRight=4;overflow=hidden;points=[[0,0.5],[1,0.5]];portConstraint=eastwest;rotatable=0;whiteSpace=wrap;html=1;" vertex="1" parent="88gfg2YuxqC0_WyTA1wB-13">
          <mxGeometry y="90" width="140" height="30" as="geometry" />
        </mxCell>
        <mxCell id="88gfg2YuxqC0_WyTA1wB-12" value="mails: list" style="text;strokeColor=none;fillColor=none;align=left;verticalAlign=middle;spacingLeft=4;spacingRight=4;overflow=hidden;points=[[0,0.5],[1,0.5]];portConstraint=eastwest;rotatable=0;whiteSpace=wrap;html=1;" vertex="1" parent="88gfg2YuxqC0_WyTA1wB-13">
          <mxGeometry y="120" width="140" height="30" as="geometry" />
        </mxCell>
        <mxCell id="88gfg2YuxqC0_WyTA1wB-11" value="address: str" style="text;strokeColor=none;fillColor=none;align=left;verticalAlign=middle;spacingLeft=4;spacingRight=4;overflow=hidden;points=[[0,0.5],[1,0.5]];portConstraint=eastwest;rotatable=0;whiteSpace=wrap;html=1;" vertex="1" parent="88gfg2YuxqC0_WyTA1wB-13">
          <mxGeometry y="150" width="140" height="30" as="geometry" />
        </mxCell>
        <mxCell id="88gfg2YuxqC0_WyTA1wB-10" value="birthday: Birthday()" style="text;strokeColor=none;fillColor=none;align=left;verticalAlign=middle;spacingLeft=4;spacingRight=4;overflow=hidden;points=[[0,0.5],[1,0.5]];portConstraint=eastwest;rotatable=0;whiteSpace=wrap;html=1;" vertex="1" parent="88gfg2YuxqC0_WyTA1wB-13">
          <mxGeometry y="180" width="140" height="30" as="geometry" />
        </mxCell>
        <mxCell id="88gfg2YuxqC0_WyTA1wB-17" value="Birthday" style="swimlane;fontStyle=0;childLayout=stackLayout;horizontal=1;startSize=30;horizontalStack=0;resizeParent=1;resizeParentMax=0;resizeLast=0;collapsible=1;marginBottom=0;whiteSpace=wrap;html=1;" vertex="1" parent="WIyWlLk6GJQsqaUBKTNV-1">
          <mxGeometry x="670" y="1060" width="140" height="60" as="geometry" />
        </mxCell>
        <mxCell id="88gfg2YuxqC0_WyTA1wB-33" value="value: datetime()" style="text;strokeColor=none;fillColor=none;align=left;verticalAlign=middle;spacingLeft=4;spacingRight=4;overflow=hidden;points=[[0,0.5],[1,0.5]];portConstraint=eastwest;rotatable=0;whiteSpace=wrap;html=1;" vertex="1" parent="88gfg2YuxqC0_WyTA1wB-17">
          <mxGeometry y="30" width="140" height="30" as="geometry" />
        </mxCell>
        <mxCell id="88gfg2YuxqC0_WyTA1wB-21" value="Field" style="swimlane;fontStyle=0;childLayout=stackLayout;horizontal=1;startSize=30;horizontalStack=0;resizeParent=1;resizeParentMax=0;resizeLast=0;collapsible=1;marginBottom=0;whiteSpace=wrap;html=1;" vertex="1" parent="WIyWlLk6GJQsqaUBKTNV-1">
          <mxGeometry x="490" y="1060" width="140" height="60" as="geometry" />
        </mxCell>
        <mxCell id="88gfg2YuxqC0_WyTA1wB-22" value="value" style="text;strokeColor=none;fillColor=none;align=left;verticalAlign=middle;spacingLeft=4;spacingRight=4;overflow=hidden;points=[[0,0.5],[1,0.5]];portConstraint=eastwest;rotatable=0;whiteSpace=wrap;html=1;" vertex="1" parent="88gfg2YuxqC0_WyTA1wB-21">
          <mxGeometry y="30" width="140" height="30" as="geometry" />
        </mxCell>
        <mxCell id="88gfg2YuxqC0_WyTA1wB-38" style="edgeStyle=orthogonalEdgeStyle;rounded=0;orthogonalLoop=1;jettySize=auto;html=1;exitX=1;exitY=0.5;exitDx=0;exitDy=0;entryX=0;entryY=0.5;entryDx=0;entryDy=0;" edge="1" parent="WIyWlLk6GJQsqaUBKTNV-1" source="88gfg2YuxqC0_WyTA1wB-10" target="88gfg2YuxqC0_WyTA1wB-22">
          <mxGeometry relative="1" as="geometry" />
        </mxCell>
        <mxCell id="88gfg2YuxqC0_WyTA1wB-39" style="edgeStyle=orthogonalEdgeStyle;rounded=0;orthogonalLoop=1;jettySize=auto;html=1;exitX=1;exitY=0.5;exitDx=0;exitDy=0;entryX=0;entryY=0.5;entryDx=0;entryDy=0;" edge="1" parent="WIyWlLk6GJQsqaUBKTNV-1" source="88gfg2YuxqC0_WyTA1wB-22" target="88gfg2YuxqC0_WyTA1wB-33">
          <mxGeometry relative="1" as="geometry" />
        </mxCell>
        <mxCell id="88gfg2YuxqC0_WyTA1wB-42" style="edgeStyle=orthogonalEdgeStyle;rounded=0;orthogonalLoop=1;jettySize=auto;html=1;exitX=1;exitY=0.5;exitDx=0;exitDy=0;entryX=0.5;entryY=0;entryDx=0;entryDy=0;" edge="1" parent="WIyWlLk6GJQsqaUBKTNV-1" source="88gfg2YuxqC0_WyTA1wB-6" target="88gfg2YuxqC0_WyTA1wB-13">
          <mxGeometry relative="1" as="geometry" />
        </mxCell>
        <mxCell id="88gfg2YuxqC0_WyTA1wB-43" value="Contacts" style="swimlane;whiteSpace=wrap;html=1;" vertex="1" parent="WIyWlLk6GJQsqaUBKTNV-1">
          <mxGeometry x="120" y="790" width="730" height="340" as="geometry" />
        </mxCell>
        <mxCell id="88gfg2YuxqC0_WyTA1wB-9" value="Clean Folder" style="swimlane;fontStyle=0;childLayout=stackLayout;horizontal=1;startSize=30;horizontalStack=0;resizeParent=1;resizeParentMax=0;resizeLast=0;collapsible=1;marginBottom=0;whiteSpace=wrap;html=1;" vertex="1" parent="88gfg2YuxqC0_WyTA1wB-43">
          <mxGeometry x="460" y="60" width="140" height="60" as="geometry" />
        </mxCell>
        <mxCell id="88gfg2YuxqC0_WyTA1wB-61" value="Vertical Container" style="swimlane;whiteSpace=wrap;html=1;" vertex="1" parent="WIyWlLk6GJQsqaUBKTNV-1">
          <mxGeometry x="120" y="360" width="730" height="400" as="geometry" />
        </mxCell>
        <mxCell id="88gfg2YuxqC0_WyTA1wB-44" value="NoteBook: UserList()" style="swimlane;fontStyle=0;childLayout=stackLayout;horizontal=1;startSize=30;horizontalStack=0;resizeParent=1;resizeParentMax=0;resizeLast=0;collapsible=1;marginBottom=0;whiteSpace=wrap;html=1;" vertex="1" parent="88gfg2YuxqC0_WyTA1wB-61">
          <mxGeometry x="50" y="190" width="140" height="120" as="geometry" />
        </mxCell>
        <mxCell id="88gfg2YuxqC0_WyTA1wB-45" value="console: Console()" style="text;strokeColor=none;fillColor=none;align=left;verticalAlign=middle;spacingLeft=4;spacingRight=4;overflow=hidden;points=[[0,0.5],[1,0.5]];portConstraint=eastwest;rotatable=0;whiteSpace=wrap;html=1;" vertex="1" parent="88gfg2YuxqC0_WyTA1wB-44">
          <mxGeometry y="30" width="140" height="30" as="geometry" />
        </mxCell>
        <mxCell id="88gfg2YuxqC0_WyTA1wB-46" value="db: sqlite3.conect()" style="text;strokeColor=none;fillColor=none;align=left;verticalAlign=middle;spacingLeft=4;spacingRight=4;overflow=hidden;points=[[0,0.5],[1,0.5]];portConstraint=eastwest;rotatable=0;whiteSpace=wrap;html=1;" vertex="1" parent="88gfg2YuxqC0_WyTA1wB-44">
          <mxGeometry y="60" width="140" height="30" as="geometry" />
        </mxCell>
        <mxCell id="88gfg2YuxqC0_WyTA1wB-47" value="cursor: db.cursor()" style="text;strokeColor=none;fillColor=none;align=left;verticalAlign=middle;spacingLeft=4;spacingRight=4;overflow=hidden;points=[[0,0.5],[1,0.5]];portConstraint=eastwest;rotatable=0;whiteSpace=wrap;html=1;" vertex="1" parent="88gfg2YuxqC0_WyTA1wB-44">
          <mxGeometry y="90" width="140" height="30" as="geometry" />
        </mxCell>
        <mxCell id="88gfg2YuxqC0_WyTA1wB-48" value="Note" style="swimlane;fontStyle=0;childLayout=stackLayout;horizontal=1;startSize=30;horizontalStack=0;resizeParent=1;resizeParentMax=0;resizeLast=0;collapsible=1;marginBottom=0;whiteSpace=wrap;html=1;" vertex="1" parent="88gfg2YuxqC0_WyTA1wB-61">
          <mxGeometry x="480" y="175" width="140" height="150" as="geometry" />
        </mxCell>
        <mxCell id="88gfg2YuxqC0_WyTA1wB-50" value="name: str" style="text;strokeColor=none;fillColor=none;align=left;verticalAlign=middle;spacingLeft=4;spacingRight=4;overflow=hidden;points=[[0,0.5],[1,0.5]];portConstraint=eastwest;rotatable=0;whiteSpace=wrap;html=1;" vertex="1" parent="88gfg2YuxqC0_WyTA1wB-48">
          <mxGeometry y="30" width="140" height="30" as="geometry" />
        </mxCell>
        <mxCell id="88gfg2YuxqC0_WyTA1wB-51" value="desc: str" style="text;strokeColor=none;fillColor=none;align=left;verticalAlign=middle;spacingLeft=4;spacingRight=4;overflow=hidden;points=[[0,0.5],[1,0.5]];portConstraint=eastwest;rotatable=0;whiteSpace=wrap;html=1;" vertex="1" parent="88gfg2YuxqC0_WyTA1wB-48">
          <mxGeometry y="60" width="140" height="30" as="geometry" />
        </mxCell>
        <mxCell id="88gfg2YuxqC0_WyTA1wB-53" value="tag: str" style="text;strokeColor=none;fillColor=none;align=left;verticalAlign=middle;spacingLeft=4;spacingRight=4;overflow=hidden;points=[[0,0.5],[1,0.5]];portConstraint=eastwest;rotatable=0;whiteSpace=wrap;html=1;" vertex="1" parent="88gfg2YuxqC0_WyTA1wB-48">
          <mxGeometry y="90" width="140" height="30" as="geometry" />
        </mxCell>
        <mxCell id="88gfg2YuxqC0_WyTA1wB-54" value="date: datetime()" style="text;strokeColor=none;fillColor=none;align=left;verticalAlign=middle;spacingLeft=4;spacingRight=4;overflow=hidden;points=[[0,0.5],[1,0.5]];portConstraint=eastwest;rotatable=0;whiteSpace=wrap;html=1;" vertex="1" parent="88gfg2YuxqC0_WyTA1wB-48">
          <mxGeometry y="120" width="140" height="30" as="geometry" />
        </mxCell>
        <mxCell id="88gfg2YuxqC0_WyTA1wB-56" style="edgeStyle=orthogonalEdgeStyle;rounded=0;orthogonalLoop=1;jettySize=auto;html=1;exitX=0.5;exitY=0;exitDx=0;exitDy=0;entryX=0.5;entryY=0;entryDx=0;entryDy=0;" edge="1" parent="88gfg2YuxqC0_WyTA1wB-61" source="88gfg2YuxqC0_WyTA1wB-44" target="88gfg2YuxqC0_WyTA1wB-48">
          <mxGeometry relative="1" as="geometry" />
        </mxCell>
        <mxCell id="88gfg2YuxqC0_WyTA1wB-65" value="GoIT_Project&amp;nbsp; (&lt;a href=&quot;https://github.com/Kunandiir/goit_project/tree/main/goit_project&quot;&gt;goit_project/goit_project at main · Kunandiir/goit_project (github.com)&lt;/a&gt;)" style="swimlane;whiteSpace=wrap;html=1;" vertex="1" parent="WIyWlLk6GJQsqaUBKTNV-1">
          <mxGeometry x="10" y="-20" width="940" height="1170" as="geometry" />
        </mxCell>
      </root>
    </mxGraphModel>
  </diagram>
</mxfile>
